<svg xmlns="http://www.w3.org/2000/svg" viewBox="0 0 480 210" role="img" aria-label="저항의 직렬연결과 병렬연결"><rect width="480" height="210" fill="#fff"/><path d="M60 150 H40 V60 H200 V150 H100" fill="none" stroke="#0a1317" stroke-width="3" stroke-linecap="round" stroke-linejoin="round"/><circle cx="100" cy="60" r="24" fill="rgba(247,185,40,.28)"/><circle cx="100" cy="60" r="15" fill="#fff7dc" stroke="#0a1317" stroke-width="2.2"/><path d="M93 62 q3 -9 7 0 q3 9 7 0" fill="none" stroke="#e0932e" stroke-width="2"/><rect x="92" y="74" width="16" height="9" fill="#ced0d4" stroke="#0a1317" stroke-width="1.5"/><circle cx="160" cy="60" r="24" fill="rgba(247,185,40,.28)"/><circle cx="160" cy="60" r="15" fill="#fff7dc" stroke="#0a1317" stroke-width="2.2"/><path d="M153 62 q3 -9 7 0 q3 9 7 0" fill="none" stroke="#e0932e" stroke-width="2"/><rect x="152" y="74" width="16" height="9" fill="#ced0d4" stroke="#0a1317" stroke-width="1.5"/><line x1="70" y1="138" x2="70" y2="162" stroke="#0a1317" stroke-width="3"/><line x1="92" y1="144" x2="92" y2="156" stroke="#0a1317" stroke-width="7"/><text x="120" y="190" text-anchor="middle" font-family="Pretendard, -apple-system, sans-serif" font-size="15" font-weight="700" fill="#0a1317">직렬</text><path d="M300 150 H280 V60 H440 V150 H340 M370 60 V150" fill="none" stroke="#0a1317" stroke-width="3" stroke-linecap="round" stroke-linejoin="round"/><circle cx="370" cy="60" r="4.5" fill="#0a1317"/><circle cx="370" cy="150" r="4.5" fill="#0a1317"/><circle cx="370" cy="105" r="24" fill="rgba(247,185,40,.28)"/><circle cx="370" cy="105" r="15" fill="#fff7dc" stroke="#0a1317" stroke-width="2.2"/><path d="M363 107 q3 -9 7 0 q3 9 7 0" fill="none" stroke="#e0932e" stroke-width="2"/><rect x="362" y="119" width="16" height="9" fill="#ced0d4" stroke="#0a1317" stroke-width="1.5"/><circle cx="440" cy="105" r="24" fill="rgba(247,185,40,.28)"/><circle cx="440" cy="105" r="15" fill="#fff7dc" stroke="#0a1317" stroke-width="2.2"/><path d="M433 107 q3 -9 7 0 q3 9 7 0" fill="none" stroke="#e0932e" stroke-width="2"/><rect x="432" y="119" width="16" height="9" fill="#ced0d4" stroke="#0a1317" stroke-width="1.5"/><line x1="310" y1="138" x2="310" y2="162" stroke="#0a1317" stroke-width="3"/><line x1="332" y1="144" x2="332" y2="156" stroke="#0a1317" stroke-width="7"/><text x="360" y="190" text-anchor="middle" font-family="Pretendard, -apple-system, sans-serif" font-size="15" font-weight="700" fill="#0a1317">병렬</text></svg>